<?xml version="1.0" encoding="utf-8"?>
<!-- Generator: Adobe Illustrator 23.0.3, SVG Export Plug-In . SVG Version: 6.00 Build 0)  -->
<svg version="1.1" id="Layer_1" xmlns="http://www.w3.org/2000/svg" xmlns:xlink="http://www.w3.org/1999/xlink" x="0px" y="0px"
	 viewBox="0 0 480 240" style="enable-background:new 0 0 480 240;" xml:space="preserve">
<style type="text/css">
	.st0{fill:#FFFFFF;}
	.st1{font-family:'GillSans-SemiBold';}
	.st2{font-size:22.6202px;}
</style>
<g>
	<path class="st0" d="M283.3,135.5c2.2-4.6,4.5-9.1,6.5-13.7c4.5-9.9,10.1-19.1,17.1-27.4c3.4-4,7.3-7.5,11.3-11
		c2.2-1.9,4.9-2.2,7.6-0.7c2.8,1.6,4.1,3.8,4.1,7.1c0.1,6.5-3.1,11.7-5.9,17.1c-5.2,10.1-12,19-19.7,27.3c-0.5,0.5-0.9,1.1-1.4,1.4
		c-5.9,3.7-8.1,9.7-9.9,15.9c-2.4,8.5-4.7,17-7,25.5c-0.1,0.5-0.1,1,0.3,1.9c3.1-3.8,6.4-7.6,9.3-11.5c3.4-4.5,6.4-9.2,9.6-13.9
		c0.3-0.4,0.5-0.9,0.8-1.1c1.3-0.5,3-1.7,3.9-1.3c1.8,0.7,1,2.7,0.2,3.9c-4.2,6.6-8.5,13.3-13,19.8c-2.6,3.8-5.6,7.3-8.6,10.8
		c-2.6,3-5.9,3.9-9.6,2.4c-3.7-1.5-4.7-4.7-4.8-8.2c-0.2-4,0-8,0-12.2c-1.8,1.9-3.4,4-5.3,5.8c-3,2.9-6.1,5.9-9.4,8.5
		c-5.7,4.5-13.5,4.9-18,1c-2-1.7-3.2-4.2-5-6.7c-1.2,1-2.8,2.2-4.3,3.5c-5.6,4.5-11.4,8.8-18.6,10.2c-9.8,1.9-17-2.7-19.8-12.2
		c-0.1-0.4-0.2-0.7-0.4-1.4c-2.3,4.1-4.5,8-6.8,11.8c-1.7,2.7-3.6,5.3-5.5,7.8c-2.4,3.1-5.8,4-9.6,3.6c-3-0.3-4.8-2.9-4.9-6.9
		C166,184,167,175.5,169,167c0.1-0.3,0-0.7,0-2c-3.1,3.2-5.9,5.9-8.3,8.8c-0.6,0.7-0.5,2.3-0.3,3.4c1.1,5,2.5,10,3.5,15.1
		c1.4,7.2,1.9,14.4-0.8,21.4c-3.5,9-10.8,13.3-19.8,14.6c-3.2,0.5-6.7,0-9.9-0.7c-7.4-1.6-10.8-7.2-9.5-14.7
		c1.3-7.6,5.4-13.8,9.7-19.8c3.9-5.3,8.3-10.2,12.7-15.1c1.7-1.9,2.5-3.6,2-6.1c-0.3-1.7-0.5-3.5-0.8-6c-1.2,2-2,3.5-3,5
		c-4.4,6.6-8.6,13.4-13.5,19.7c-3.3,4.3-8.6,4.8-13.3,2.1c-3.7-2.2-4.2-6-4.4-9.8c-0.2-4.6,0-9.2,0-13c-4,3.5-8.5,7.8-13.4,11.6
		c-5.7,4.5-11.8,8.6-19.4,8.7c-9.9,0.2-16.9-6.7-17.1-16.7c-0.2-10.2,3.7-19.1,9.2-27.4c3-4.6,6.4-9.2,10.4-12.9
		c3.4-3,7.8-5.2,12.1-6.8c7-2.6,17.2,5.2,13.6,14.5C103.1,155,93.3,164,79.6,169c-2,0.7-3.3,1.6-3.4,3.8c-0.2,2.9-0.7,5.7-0.6,8.6
		c0.1,2.9,1.8,4.3,4.6,3.7c2.7-0.6,5.5-1.4,7.9-2.7c10.6-5.7,19.7-13.4,26-23.7c3.1-5,4.9-11,6.9-16.6c6.1-16.4,12.6-32.7,22.3-47.4
		c3.8-5.8,7.9-11.5,14.6-14.4c3.5-1.6,6.9-1.6,10.3,0.1c2.8,1.4,4.2,3.7,4.5,6.9c0.7,8.4-2.5,15.7-6,22.9
		c-7.4,15.3-16.9,29.1-29.3,40.8c-0.3,0.3-0.6,0.7-1,1c-3.6,2.3-5.6,5.6-6.4,9.8c-1.5,7.9-3.2,15.7-4.8,23.6c0.3,0.2,0.7,0.3,1,0.5
		c2.3-2.9,4.7-5.6,6.7-8.6c4.9-7.3,9.8-14.5,14.1-22.1c1.8-3.1,2.1-7.1,3.2-10.7c1.5-4.5,2.8-9.2,6.5-12.6c4.6-4.4,9.3-3.1,12.8,1.3
		c0.6,0.7,0.6,2.1,0.5,3.2c-0.4,4-1.3,8.1,2.2,11.4c0.4,0.3,0.3,1.4,0,2c-0.2,0.4-1.1,0.6-1.6,0.5c-3-0.9-5.9-1.9-9.2-3
		c-2.2,5.4-3.6,11.6-3,18.9c2.5-2.2,4.7-4.2,6.9-6.1c1.7-1.5,3.4-3,5-4.6c1.1-1.1,2.1-2.4,2.7-3.8c4.1-9.9,8.2-19.8,12.2-29.7
		c0.1-0.3,0.3-0.7,0.6-1.5c-2.2,0.2-4.1,0.3-6,0.5c-4.7,0.6-8.6-4.2-6.7-8.5c0.4-0.8,1.7-1.5,2.7-1.6c4.3-0.5,8.6-0.8,12.9-1
		c1.9-0.1,3.1-0.6,4.1-2.3c1.5-2.7,3.4-5.2,4.9-7.9c1.6-2.8,4.2-3.2,6.6-2.3c5.8,2.4,7,3.8,4.1,8.8c-0.4,0.8-0.8,1.7-1.4,2.8
		c4,0.4,7.7,0.8,11.3,1.3c4.1,0.6,8.4,0.9,11.4,4.1c1,1.1,1.8,3,1.6,4.3c-0.2,0.8-2.5,1.7-3.9,1.7c-7-0.3-14-0.8-21-1.3
		c-3.2-0.3-4.9,0.8-6.1,3.9c-4.8,12.3-10.2,24.3-14.8,36.6c-3,8-4.9,16.5-7.3,24.8c0.3,0.1,0.6,0.2,0.9,0.4c2.3-3.7,4.6-7.3,6.8-11
		c5-8.5,9.8-17.1,15.1-25.5c5.2-8.3,10.7-16.4,20.3-20.5c7.5-3.2,15.1-0.4,17.4,6.8c1.4,4.4-0.6,8.4-2.6,12.1
		c-6,10.9-14.9,18.5-26.7,22.5c-1.9,0.6-3.1,1.5-3.3,3.6c-0.2,2.9-0.8,5.9-0.7,8.8c0.1,2.9,1.8,3.9,4.8,3.6
		c6.7-0.8,11.7-4.9,16.9-8.6c3.5-2.5,6.5-5.7,9.6-8.7c0.9-0.9,1.2-2.3,1.7-3.5c4.8-12.4,12.2-22.9,23.9-29.7c4.3-2.5,9-4.6,14.2-2.7
		C278.9,132.8,281,134.3,283.3,135.5z M247.5,179.8c10.2-1.7,32.4-27.4,33.6-39.3c-1.8-0.1-3.8-0.7-5.4-0.1c-3.1,1-6.3,2.2-8.9,4.1
		c-9.1,6.6-15,15.7-18.9,26.1C246.8,173.5,245.7,176.6,247.5,179.8z M137.1,139.9c0.5,0.2,0.9,0.4,1.4,0.6
		c6.1-8.8,12.3-17.6,18.4-26.5c5.1-7.4,8.8-15.5,10.3-24.5c0.3-1.6,0-3.3,0-5.2c-4.7,1.1-6.4,4.3-8.4,7.2
		c-7.5,11.1-12.7,23.4-17.4,35.9C139.8,131.6,138.5,135.7,137.1,139.9z M149.8,186.5c-6.4,7.9-12.9,15.8-14.6,26.2
		c-0.3,2-0.3,4.1,0.1,6.1c0.7,3.4,1.8,3.8,4.9,2.1c5-2.8,8.3-7,9.8-12.5C151.8,201.2,151,193.9,149.8,186.5z M209.9,161.8
		c12.2-4.7,24.8-20.2,22-27.9C220.6,139.9,215.8,150.7,209.9,161.8z M102.2,134.5c-6.4,0.9-20.8,19.1-21.5,27.1
		C92.3,156.7,104,142.4,102.2,134.5z M302.9,126.2c8.4-7.8,22.5-29.1,21.6-36.9C315.2,100.7,308.2,112.9,302.9,126.2z"/>
	<path class="st0" d="M25.9,139.1c-3.3,0.2-6.1,0.5-9,0.5c-3.6,0.1-7.2-3.7-6.6-7.2c0.1-0.8,1.4-1.9,2.3-2.1
		c5.6-1.2,11.2-2,16.8-3.1c0.9-0.2,1.9-0.9,2.3-1.7c6.6-13,13.1-26,19.6-39c0-0.1,0-0.2-0.2-0.6c-1.5,0.2-3,0.3-4.5,0.5
		c-7.9,1-15.8,2.4-23.7,2.8c-5.4,0.3-11-0.9-15.1-5.1c-1.6-1.7-2.5-4.1-3.5-6.2c-0.3-0.6-0.2-2.1,0.1-2.2c0.9-0.3,2-0.4,2.9-0.1
		c1.5,0.5,2.8,1.9,4.3,2c4.6,0.4,9.4,0.9,13.9,0.4c13-1.6,25.9-4.1,38.9-5.6C75.7,71,86.8,70.6,98,69.9c4.1-0.3,8.3-0.4,12.4-0.4
		c4,0,8.1,0.2,12.1,0.4c4.2,0.3,7.5,4,7.2,8.2c-0.1,1-0.8,2.4-1.7,2.9c-0.7,0.4-2-0.3-3-0.5c-1.4-0.4-2.8-1.2-4.2-1.2
		c-11.2,0.5-22.5,1-33.7,1.7c-5,0.3-10.1,0.7-15.1,1.3c-1.4,0.2-3.3,1.3-4,2.5c-5.5,9.5-10.9,19.1-16.2,28.7
		c-1.9,3.4-3.7,6.9-5.9,11c2.6-0.2,4.7-0.4,6.8-0.5c3.4,0,6.7-0.2,10.1,0.2c3.7,0.4,7.4,6,6.5,9.6c-0.1,0.5-1.9,1.2-2.1,1
		c-3.2-3.2-7-2.2-10.7-1.8c-4.6,0.5-9.3,1.4-13.8,2.3c-1,0.2-2.3,1.1-2.7,2c-7.7,16.7-14.8,33.7-18.5,51.9
		c-1.1,5.2-1.2,10.6-2.1,15.9c-0.2,1.3-1.3,2.4-2,3.7c-1.2-0.8-2.6-1.3-3.4-2.4c-4.4-5.8-4.2-12.4-3.1-19.2
		c2-12.7,6.3-24.7,10.7-36.7C22.9,146.7,24.4,143,25.9,139.1z"/>
	<path class="st0" d="M390.5,160.8c-9.3,8.3-19,15.6-30.8,19.7c-0.2-0.3-0.4-0.5-0.6-0.8c0.5-0.5,1-1.1,1.5-1.5
		c9.3-6.6,18.6-13.1,27.9-19.7c0.9-0.6,1.4-1.8,2.1-2.7c-1.3-0.1-2.9-0.8-3.8-0.3c-4.4,2.3-8.9,4.6-12.9,7.5
		c-10.5,7.5-20.7,15.4-31,23c-1.7,1.3-3.6,2.4-5.5,3.4c-8,4-13.3,2.8-20.8-4.8c-0.9-0.9-1.8-1.9-2.5-3c-0.3-0.5-0.3-1.2-0.4-1.8
		c0.7,0.1,1.6,0,2.2,0.3c4.2,2.7,8.8,4,13.7,3.5c6-0.6,11.4-3.2,16.4-6.5c11.6-7.5,20.8-17.8,30.9-27c2.4-2.2,4.9-4.2,7.3-7
		c-5.7,0.8-11.4,1.5-17.1,2.4c-5.6,0.8-11.2,1.9-16.8,0.8c0-0.4-0.1-0.7-0.1-1.1c0.6-0.3,1.2-0.6,1.9-0.8c3.7-0.7,7.4-1.6,11.1-2.1
		c2.7-0.4,3.3-1.8,2.2-3.8c-2.1-3.7-4.5-7.3-7-10.8c-2.6-3.6-5.9-6.9-8.3-10.6c-3.3-5-3.5-10.4-0.6-15.8c4.6-8.5,12-14.1,20-18.9
		c5.7-3.4,11.8-5.8,18.5-6.6c1.1-0.1,2.2,0,3.2,0c0.1,0.2,0.2,0.5,0.3,0.7c-0.7,0.4-1.3,1-2,1.2c-14,4.4-22.2,14.2-26.2,28
		c-1.7,5.7,0.2,11.2,2,16.6c1.4,4.3,3,8.5,4.4,12.8c0.5,1.6,0.6,3.3,1,5.3c1.2-0.2,2.7-0.5,4.1-0.8c6.2-1.3,12.3-2.6,18.5-3.8
		c3.4-0.7,6.3,0.1,8.5,3.1c1.2,1.7,2.6,3.2,3.7,5c2,3.2,2.6,6.5,1.3,10.2c-3.1,8.9-6.2,17.8-8.9,26.8c-1.2,4-1.4,8.3-1.6,12.5
		c-0.2,4.8-2.5,9.4-7,11c-3.4,1.2-5.5,3.5-7.2,6.4c-3.7,6.6-9.5,11.1-15.7,15c-1.1,0.7-2.4,1.1-3.7,1.4c-2.6,0.6-4.6-0.5-4.7-3.1
		c-0.3-7.2,0-14.5,2.3-21.5c0.8-2.6,3.3-3.2,5.5-3.1c4.8,0.1,7.5-2.2,9.7-6.2c5.4-9.9,10.8-19.8,14.5-30.6
		C390.2,162,390.3,161.4,390.5,160.8z"/>
	<path class="st0" d="M401,72.4c9.7,15.3,21.8,12.4,34.6,5.1c0.7,3.3,1.3,6.4,1.9,9.7c-2.2-0.9-4.3-1.8-6.4-2.7
		c-0.1,0.2-0.2,0.4-0.3,0.6c4.7,3.9,9.3,7.8,14.1,11.7c0.1-0.9,0.2-1.4,0.3-2c0.6,0.2,1.5,0.1,1.7,0.5c1.4,2.1,3,4.1,3.8,6.5
		c1.4,4.4,1.2,4.5,6.9,5.2c-2.3-5.1-4.5-9.6-6.8-14.7c1,0.1,2,0,2.8,0.2c4.4,1.3,7.7,4.2,10.6,7.7c0.9,1,1.7,3.4,3.7,1.9
		c1.8-1.4,2.3-3.4,1.1-5.6c-1-1.8-2.5-3.5-2.9-5.4c-0.4-1.7,0-3.8,0.7-5.5c0.2-0.6,2.1-0.7,3.2-1c0.2,1,0.4,2,0.7,2.9
		c0.2,0.7,0.5,1.5,0.7,2.2c0.7-0.6,2-1.4,1.9-1.9c-0.3-1.6-0.8-3.7-1.9-4.4c-6.6-4-10.2-10.6-14.9-16.2
		c-4.7-5.6-10.1-10.6-15.2-15.8c-0.4-0.4-0.9-0.5-1.6-0.9c-3.2,5.7-2.5,11.7-1.7,17.8c-0.3,0.1-0.6,0.1-0.9,0.2
		c-0.4-0.8-1.1-1.6-1.2-2.4c-0.4-4.9-0.6-9.9-0.8-14.8c0-1,0.4-2,0.6-3c1.3-7.1,0.2-8.8-6.8-10.7c-1.5-0.4-1.9-1.2-2.6-2.6
		c-1.2-2.2-3.6-4.9-5.7-5.2c-8-1.1-13.1-6.5-18.6-11.2c-1.1-0.9-2.5-1.6-3.9-2.1c2.5,2.8,5,5.7,7.5,8.5c-0.2,0.4-0.5,0.8-0.7,1.2
		c-2.2-0.6-4.3-1.2-6.5-1.8c0,0.1-0.1,0.2-0.1,0.2c1.6,0.9,3.4,1.5,4.8,2.7c1.7,1.4,3.2,3.1,4.4,4.9c1,1.5,0.2,2.8-2,3.6
		c0-5.5-3.9-5.5-7.6-5.9c-21.6-2.3-42.7-1-63.1,7c-14.6,5.7-27.6,14.3-39.2,24.7c-7,6.3-13.6,13-20.3,19.5c-1.2,1.1-2.5,2.1-3.7,3.2
		c-0.2-0.1-0.5-0.3-0.7-0.4c0.3-0.9,0.3-1.9,0.8-2.6c3.3-4.6,6.4-9.3,10-13.6c13.8-16.4,30.1-29.7,49.6-39
		c16.2-7.7,33.2-11,51.1-8.6c0.9,0.1,1.9,0.3,2.8,0.5c0.9,0.2,1.8,0.4,3.6,0.8c-1.3-2.3-2.2-3.9-3.1-5.6c-1.4-2.7-1.2-3.2,1.7-4.3
		c0-0.4-0.1-0.9-0.1-1.3c-0.3-2.8,0.6-3.7,3.1-2.5c4.3,2,8.7,4.2,12.7,6.7c3.5,2.2,6.4,5.2,9.8,7.5c1.6,1.1,3.7,2.1,5.6,2.3
		c4.3,0.6,7.4,2.7,10.1,6c1.8,2.2,4.2,4.1,6.6,5.5c2.7,1.6,4.5,3.6,5.4,6.5c0.3,1,0.7,2.2,1.5,3c9.2,8.8,16.4,19.1,23.8,29.3
		c1.7,2.4,4,4.5,6.2,6.4c3.2,2.7,4,5,2.9,9.2c-0.8,3.2-1.1,6.6-1.9,9.8c-0.6,2.2-1.4,4.6-2.7,6.4c-2.3,3.1-4.7,2.7-6.6-0.6
		c-0.8-1.3-1.5-2.6-2.3-3.8c-0.6-0.8-1.3-1.5-1.9-2.3c-0.2,0.1-0.4,0.3-0.7,0.4c1.3,2.8,2.6,5.5,3.8,8.3c0.4,1,0.5,2.1,0.7,3.1
		c-1.1,0.2-2.3,0.4-3.4,0.4c-1.4,0-2.8-0.3-4.2-0.1c-4.7,0.5-7.6-1.6-7.6-6.4c0-3.4-1.8-5-4.3-6.3c-8.1-4.5-16.8-7.1-26-8.1
		c-3.2-0.3-6.4-0.8-9.4-1.7C401.9,87.2,398.3,78.8,401,72.4z"/>
	<path class="st0" d="M463.2,86.8c0.9,2.5,1.6,4.9,2.4,7.2c-0.2,0.2-0.4,0.4-0.5,0.6c-1.9-1.2-3.7-2.3-5.6-3.5
		C460.8,89.7,461.8,88.4,463.2,86.8z"/>
</g>
<text transform="matrix(1 0 0 1 185.2661 226.6035)" class="st0 st1 st2">HORSEBOXES</text>
</svg>
